<svg width="668" height="668" viewBox="0 0 668 668" fill="none" xmlns="http://www.w3.org/2000/svg">
<path d="M300.667 534H367.333V467.333H300.667V534ZM334 0.666687C150 0.666687 0.666748 150 0.666748 334C0.666748 518 150 667.333 334 667.333C518 667.333 667.333 518 667.333 334C667.333 150 518 0.666687 334 0.666687ZM334 600.667C187 600.667 67.3334 481 67.3334 334C67.3334 187 187 67.3334 334 67.3334C481 67.3334 600.667 187 600.667 334C600.667 481 481 600.667 334 600.667ZM334 134C260.333 134 200.667 193.667 200.667 267.333H267.333C267.333 230.667 297.333 200.667 334 200.667C370.667 200.667 400.667 230.667 400.667 267.333C400.667 334 300.667 325.667 300.667 434H367.333C367.333 359 467.333 350.667 467.333 267.333C467.333 193.667 407.667 134 334 134Z" fill="white"/>
</svg>
