<!DOCTYPE svg PUBLIC "-//W3C//DTD SVG 1.1//EN" "http://www.w3.org/Graphics/SVG/1.1/DTD/svg11.dtd">
<!-- Uploaded to: SVG Repo, www.svgrepo.com, Transformed by: SVG Repo Mixer Tools -->
<svg fill="#FFFFFF" width="800px" height="800px" viewBox="0 0 96 96" xmlns="http://www.w3.org/2000/svg">
<g id="SVGRepo_bgCarrier" stroke-width="0"/>
<g id="SVGRepo_tracerCarrier" stroke-linecap="round" stroke-linejoin="round"/>
<g id="SVGRepo_iconCarrier"> <title/> <g> <path d="M66,42H54V30a6,6,0,0,0-12,0V42H30a6,6,0,0,0,0,12H42V66a6,6,0,0,0,12,0V54H66a6,6,0,0,0,0-12Z"/> <path d="M48,0A48,48,0,1,0,96,48,48.0512,48.0512,0,0,0,48,0Zm0,84A36,36,0,1,1,84,48,36.0393,36.0393,0,0,1,48,84Z"/> </g> </g>
</svg>